HIERARCHY
ROOT Hips
{
    OFFSET 0.000000 0.000000 0.000000
    CHANNELS 6 Xposition Yposition Zposition Zrotation Xrotation Yrotation
    JOINT Spine
    {
        OFFSET -0.000000 7.305680 0.000000
        CHANNELS 3 Zrotation Xrotation Yrotation
        JOINT Spine1
        {
            OFFSET -0.000000 20.356600 0.000000
            CHANNELS 3 Zrotation Xrotation Yrotation
            JOINT Neck
            {
                OFFSET -0.000000 22.138500 0.000000
                CHANNELS 3 Zrotation Xrotation Yrotation
                JOINT Head
                {
                    OFFSET -0.000000 13.809501 1.781870
                    CHANNELS 3 Zrotation Xrotation Yrotation
                    End Site
                    {
                        OFFSET -0.000000 17.818779 0.000000
                    }
                }
            }
            JOINT LeftShoulder
            {
                OFFSET 3.599130 17.990000 0.023591
                CHANNELS 3 Zrotation Xrotation Yrotation
                JOINT LeftArm
                {
                    OFFSET 12.560999 0.000000 0.000000
                    CHANNELS 3 Zrotation Xrotation Yrotation
                    JOINT LeftForeArm
                    {
                        OFFSET 22.903299 0.000000 0.000000
                        CHANNELS 3 Zrotation Xrotation Yrotation
                        JOINT LeftHand
                        {
                            OFFSET 21.865299 0.000000 0.000000
                            CHANNELS 3 Zrotation Xrotation Yrotation
                            JOINT LeftHandThumb1
                            {
                                OFFSET 1.853710 -2.106480 2.949080
                                CHANNELS 3 Zrotation Xrotation Yrotation
                                JOINT LeftHandThumb2
                                {
                                    OFFSET 2.049150 0.000000 1.336400
                                    CHANNELS 3 Zrotation Xrotation Yrotation
                                    JOINT LeftHandThumb3
                                    {
                                        OFFSET 2.672810 0.000000 0.000000
                                        CHANNELS 3 Zrotation Xrotation Yrotation
                                        End Site
                                        {
                                            OFFSET 2.381310 0.000000 0.000000
                                        }
                                    }
                                }
                            }
                            JOINT LeftHandIndex1
                            {
                                OFFSET 7.583340 0.000000 2.949080
                                CHANNELS 3 Zrotation Xrotation Yrotation
                                JOINT LeftHandIndex2
                                {
                                    OFFSET 4.454680 0.000000 0.000000
                                    CHANNELS 3 Zrotation Xrotation Yrotation
                                    JOINT LeftHandIndex3
                                    {
                                        OFFSET 2.227340 0.000000 0.000000
                                        CHANNELS 3 Zrotation Xrotation Yrotation
                                        End Site
                                        {
                                            OFFSET 1.984424 0.000000 0.000000
                                        }
                                    }
                                }
                            }
                            JOINT LeftHandMiddle1
                            {
                                OFFSET 7.583340 0.000000 0.977409
                                CHANNELS 3 Zrotation Xrotation Yrotation
                                JOINT LeftHandMiddle2
                                {
                                    OFFSET 4.900150 0.000000 0.000000
                                    CHANNELS 3 Zrotation Xrotation Yrotation
                                    JOINT LeftHandMiddle3
                                    {
                                        OFFSET 2.672810 0.000000 0.000000
                                        CHANNELS 3 Zrotation Xrotation Yrotation
                                        End Site
                                        {
                                            OFFSET 2.381310 0.000000 0.000000
                                        }
                                    }
                                }
                            }
                            JOINT LeftHandRing1
                            {
                                OFFSET 7.162050 0.000000 -0.977409
                                CHANNELS 3 Zrotation Xrotation Yrotation
                                JOINT LeftHandRing2
                                {
                                    OFFSET 4.454680 0.000000 0.000000
                                    CHANNELS 3 Zrotation Xrotation Yrotation
                                    JOINT LeftHandRing3
                                    {
                                        OFFSET 2.227340 0.000000 0.000000
                                        CHANNELS 3 Zrotation Xrotation Yrotation
                                        End Site
                                        {
                                            OFFSET 1.984424 0.000000 0.000000
                                        }
                                    }
                                }
                            }
                            JOINT LeftHandPinky1
                            {
                                OFFSET 6.740750 0.000000 -2.949080
                                CHANNELS 3 Zrotation Xrotation Yrotation
                                JOINT LeftHandPinky2
                                {
                                    OFFSET 3.563750 0.000000 0.000000
                                    CHANNELS 3 Zrotation Xrotation Yrotation
                                    JOINT LeftHandPinky3
                                    {
                                        OFFSET 1.781870 0.000000 0.000000
                                        CHANNELS 3 Zrotation Xrotation Yrotation
                                        End Site
                                        {
                                            OFFSET 1.587538 0.000000 0.000000
                                        }
                                    }
                                }
                            }
                        }
                    }
                }
            }
            JOINT RightShoulder
            {
                OFFSET -3.506990 17.990000 0.023591
                CHANNELS 3 Zrotation Xrotation Yrotation
                JOINT RightArm
                {
                    OFFSET -12.560999 0.000000 0.000000
                    CHANNELS 3 Zrotation Xrotation Yrotation
                    JOINT RightForeArm
                    {
                        OFFSET -22.903299 0.000000 0.000000
                        CHANNELS 3 Zrotation Xrotation Yrotation
                        JOINT RightHand
                        {
                            OFFSET -21.865299 0.000000 0.000000
                            CHANNELS 3 Zrotation Xrotation Yrotation
                            JOINT RightHandThumb1
                            {
                                OFFSET -1.853710 -2.106480 2.949080
                                CHANNELS 3 Zrotation Xrotation Yrotation
                                JOINT RightHandThumb2
                                {
                                    OFFSET -2.049150 0.000000 1.336400
                                    CHANNELS 3 Zrotation Xrotation Yrotation
                                    JOINT RightHandThumb3
                                    {
                                        OFFSET -2.672810 0.000000 0.000000
                                        CHANNELS 3 Zrotation Xrotation Yrotation
                                        End Site
                                        {
                                            OFFSET -2.381310 0.000000 0.000000
                                        }
                                    }
                                }
                            }
                            JOINT RightHandIndex1
                            {
                                OFFSET -7.583340 0.000000 2.949080
                                CHANNELS 3 Zrotation Xrotation Yrotation
                                JOINT RightHandIndex2
                                {
                                    OFFSET -4.454680 0.000000 0.000000
                                    CHANNELS 3 Zrotation Xrotation Yrotation
                                    JOINT RightHandIndex3
                                    {
                                        OFFSET -2.227340 0.000000 0.000000
                                        CHANNELS 3 Zrotation Xrotation Yrotation
                                        End Site
                                        {
                                            OFFSET -1.984424 0.000000 0.000000
                                        }
                                    }
                                }
                            }
                            JOINT RightHandMiddle1
                            {
                                OFFSET -7.583340 0.000000 0.977409
                                CHANNELS 3 Zrotation Xrotation Yrotation
                                JOINT RightHandMiddle2
                                {
                                    OFFSET -4.900150 0.000000 0.000000
                                    CHANNELS 3 Zrotation Xrotation Yrotation
                                    JOINT RightHandMiddle3
                                    {
                                        OFFSET -2.672810 0.000000 0.000000
                                        CHANNELS 3 Zrotation Xrotation Yrotation
                                        End Site
                                        {
                                            OFFSET -2.381310 0.000000 0.000000
                                        }
                                    }
                                }
                            }
                            JOINT RightHandRing1
                            {
                                OFFSET -7.162050 0.000000 -0.977409
                                CHANNELS 3 Zrotation Xrotation Yrotation
                                JOINT RightHandRing2
                                {
                                    OFFSET -4.454680 0.000000 0.000000
                                    CHANNELS 3 Zrotation Xrotation Yrotation
                                    JOINT RightHandRing3
                                    {
                                        OFFSET -2.227340 0.000000 0.000000
                                        CHANNELS 3 Zrotation Xrotation Yrotation
                                        End Site
                                        {
                                            OFFSET -1.984424 0.000000 0.000000
                                        }
                                    }
                                }
                            }
                            JOINT RightHandPinky1
                            {
                                OFFSET -6.740750 0.000000 -2.949080
                                CHANNELS 3 Zrotation Xrotation Yrotation
                                JOINT RightHandPinky2
                                {
                                    OFFSET -3.563750 0.000000 0.000000
                                    CHANNELS 3 Zrotation Xrotation Yrotation
                                    JOINT RightHandPinky3
                                    {
                                        OFFSET -1.781870 0.000000 0.000000
                                        CHANNELS 3 Zrotation Xrotation Yrotation
                                        End Site
                                        {
                                            OFFSET -1.587538 0.000000 0.000000
                                        }
                                    }
                                }
                            }
                        }
                    }
                }
            }
        }
    }
    JOINT LeftUpLeg
    {
        OFFSET 8.909360 0.000000 0.000000
        CHANNELS 3 Zrotation Xrotation Yrotation
        JOINT LeftLeg
        {
            OFFSET -0.000000 -38.765602 0.000000
            CHANNELS 3 Zrotation Xrotation Yrotation
            JOINT LeftFoot
            {
                OFFSET -0.000000 -35.245003 0.000000
                CHANNELS 3 Zrotation Xrotation Yrotation
                JOINT LeftToeBase
                {
                    OFFSET -0.000000 -5.791090 13.364000
                    CHANNELS 3 Zrotation Xrotation Yrotation
                    End Site
                    {
                        OFFSET -0.000000 0.000000 3.563756
                    }
                }
            }
        }
    }
    JOINT RightUpLeg
    {
        OFFSET -8.909360 0.000000 0.000000
        CHANNELS 3 Zrotation Xrotation Yrotation
        JOINT RightLeg
        {
            OFFSET -0.000000 -38.765602 0.000000
            CHANNELS 3 Zrotation Xrotation Yrotation
            JOINT RightFoot
            {
                OFFSET -0.000000 -35.245003 0.000000
                CHANNELS 3 Zrotation Xrotation Yrotation
                JOINT RightToeBase
                {
                    OFFSET -0.000000 -5.791090 13.364000
                    CHANNELS 3 Zrotation Xrotation Yrotation
                    End Site
                    {
                        OFFSET -0.000000 0.000000 3.563756
                    }
                }
            }
        }
    }
}
MOTION
Frames:    4
Frame Time:    0.033333
0.665759    81.396744    115.520226    0.542563    0.217816    3.639702    -0.625678    -0.992747    -0.286668    0.264581    -1.072001    -0.091361    0.923596    2.901022    0.626386    1.860952    -6.802254    0.663851    17.653423    1.908067    -1.758035    -18.413309    -4.316926    7.812022    9.934763    -3.720881    -9.597721    3.189706    -28.897358    8.701326    1.655534    -1.740413    0.008533    0.000000    0.000000    0.000000    0.000000    0.000000    0.000000    -2.553790    0.162468    -3.637749    -5.117900    0.000000    0.000000    -2.558950    0.000000    0.000000    -10.412061    -0.090063    -1.330406    -20.819336    0.000000    0.000000    -10.409667    0.000000    0.000000    -18.254227    -0.655411    0.920866    -36.520763    0.000000    0.000000    -18.260382    0.000000    0.000000    -26.306459    -1.552981    3.137801    -52.697998    0.000000    0.000000    -26.348997    0.000000    0.000000    -15.962927    6.486597    -9.665255    22.818499    -1.940501    2.459391    -11.075190    -3.743647    4.563588    3.535905    -33.499008    -3.508366    -0.492651    -3.135921    4.499523    0.000000    0.000000    0.000000    0.000000    0.000000    0.000000    3.329701    0.012795    0.219915    6.659450    0.000000    -0.000000    3.329726    0.000000    -0.000000    6.049165    -0.145372    -0.868388    12.101704    0.000000    -0.000000    6.050850    0.000000    -0.000000    8.765176    -0.354966    -1.947978    17.543955    0.000000    -0.000000    8.771976    0.000000    -0.000000    11.558951    -0.624122    -3.048641    23.151123    0.000000    -0.000000    11.575562    0.000000    -0.000000    -1.923784    5.502526    -1.215786    2.484573    -5.772446    24.838505    -3.120777    1.928636    -17.591335    0.517847    -3.369147    -1.806088    0.370742    4.653982    3.250223    -0.482749    -4.065193    -15.970025    0.464616    -2.151609    7.633810    -0.170034    -1.288254    0.138097    
0.722696    81.406776    115.488670    0.566394    0.310826    3.626809    -0.561256    -0.986659    -0.221198    0.300174    -1.334083    -0.069013    0.841272    2.857947    0.563627    1.869791    -6.588783    0.581501    17.604988    1.826500    -1.953032    -18.444254    -4.312045    7.771358    9.642779    -3.722129    -9.311083    2.577408    -28.688181    8.553113    1.400275    -1.696210    -0.250110    0.000000    0.000000    0.000000    0.000000    0.000000    0.000000    -2.683945    0.165591    -3.527925    -5.378089    0.000000    0.000000    -2.689045    0.000000    0.000000    -10.473715    -0.096287    -1.250554    -20.943079    0.000000    0.000000    -10.471540    0.000000    0.000000    -18.247368    -0.664145    0.970433    -36.508068    0.000000    0.000000    -18.254040    0.000000    0.000000    -26.229445    -1.557314    3.157191    -52.544727    0.000000    0.000000    -26.272366    0.000000    0.000000    -15.913016    6.236919    -9.561148    22.539112    -1.711478    2.454461    -10.903354    -3.924260    4.323296    4.038547    -33.127148    -3.697667    -0.367327    -3.226148    4.725566    0.000000    0.000000    0.000000    0.000000    0.000000    0.000000    3.510880    0.022697    0.369927    7.021906    0.000000    -0.000000    3.510953    0.000000    -0.000000    6.358999    -0.165465    -0.899247    12.722129    0.000000    -0.000000    6.361063    0.000000    -0.000000    9.202312    -0.416407    -2.157531    18.422348    0.000000    -0.000000    9.211175    0.000000    -0.000000    12.125440    -0.739837    -3.439337    24.295305    0.000000    -0.000000    12.147653    0.000000    -0.000000    -2.006513    5.414441    -1.278182    2.507882    -5.813575    24.948189    -3.098741    1.956041    -17.622534    0.517388    -3.386547    -1.807786    0.281035    4.545053    3.414607    -0.465172    -4.075971    -15.927374    0.432386    -2.114405    7.452734    -0.168871    -1.302722    0.134771    
0.773954    81.408234    115.469589    0.594761    0.298178    3.859831    -0.497014    -1.007887    -0.313120    0.305222    -1.378976    -0.099711    0.858917    2.796085    0.523920    1.764281    -6.435545    0.547906    17.502977    1.747765    -2.218934    -18.458549    -4.179041    7.650705    9.585717    -3.686217    -9.094123    2.153086    -28.451077    8.610074    1.177261    -1.729946    -0.559168    0.000000    0.000000    0.000000    0.000000    0.000000    0.000000    -3.184837    0.192591    -3.456969    -6.381297    0.000000    0.000000    -3.190648    0.000000    0.000000    -10.786842    -0.098321    -1.170535    -21.569931    0.000000    0.000000    -10.784966    0.000000    0.000000    -18.371662    -0.688854    1.057457    -36.758560    0.000000    0.000000    -18.379288    0.000000    0.000000    -26.158356    -1.598804    3.251253    -52.407463    0.000000    0.000000    -26.203732    0.000000    0.000000    -15.848590    6.086751    -9.419920    22.270441    -1.352631    2.454702    -10.945230    -4.000257    4.122532    4.944973    -32.878857    -3.707749    -0.316478    -3.315125    4.896540    0.000000    0.000000    0.000000    0.000000    0.000000    0.000000    3.624017    0.027623    0.436133    7.248244    0.000000    -0.000000    3.624122    0.000000    -0.000000    6.462192    -0.165131    -0.867922    12.928430    0.000000    -0.000000    6.464215    0.000000    -0.000000    9.295303    -0.422164    -2.160860    18.608618    0.000000    -0.000000    9.304310    0.000000    -0.000000    12.207592    -0.753416    -3.478076    24.460930    0.000000    -0.000000    12.230467    0.000000    -0.000000    -2.039967    5.378702    -1.397424    2.471296    -5.777970    24.888931    -3.060660    1.951698    -17.679737    0.519049    -3.390528    -1.812839    0.207003    4.563006    3.599764    -0.439911    -4.050930    -15.989215    0.419496    -2.142757    7.109249    -0.169899    -1.304307    0.136245    
0.818595    81.409294    115.455719    0.611900    0.204621    4.280659    -0.420992    -1.053698    -0.499860    0.287423    -1.271484    -0.162280    0.948118    2.800946    0.490759    1.632725    -6.375310    0.536513    17.272497    1.662555    -2.628096    -18.502022    -3.906593    7.498892    9.684124    -3.350067    -8.926826    1.844256    -28.014923    8.665746    1.007255    -1.974256    -1.042681    0.000000    0.000000    0.000000    0.000000    0.000000    0.000000    -4.061476    0.276026    -3.881448    -8.141659    0.000000    0.000000    -4.070829    0.000000    0.000000    -11.402816    -0.109562    -1.239735    -22.801710    0.000000    0.000000    -11.400854    0.000000    0.000000    -18.719252    -0.829042    1.331289    -37.461758    0.000000    0.000000    -18.730883    0.000000    0.000000    -26.218752    -1.905671    3.863059    -52.566055    0.000000    0.000000    -26.283026    0.000000    0.000000    -15.713249    6.039713    -9.247519    22.061106    -0.931986    2.410386    -11.029537    -4.098709    3.865443    5.804515    -32.859509    -3.645024    -0.282879    -3.415330    5.072063    0.000000    0.000000    0.000000    0.000000    0.000000    0.000000    3.807667    0.038661    0.580870    7.615726    0.000000    -0.000000    3.807863    0.000000    -0.000000    6.614918    -0.162226    -0.796717    13.233653    0.000000    -0.000000    6.616827    0.000000    -0.000000    9.416592    -0.430277    -2.162842    18.851580    0.000000    -0.000000    9.425790    0.000000    -0.000000    12.295794    -0.775862    -3.554999    24.639746    0.000000    -0.000000    12.319873    0.000000    -0.000000    -2.022516    5.369777    -1.501312    2.389635    -5.667563    24.704937    -3.023738    1.929972    -17.820990    0.519847    -3.392969    -1.815357    0.171916    4.653117    3.713871    -0.420773    -3.952024    -16.114859    0.404522    -2.232550    6.713983    -0.165888    -1.307567    0.129536    
